<?xml version="1.0" encoding="UTF-8"?>
<svg id="Layer_2" xmlns="http://www.w3.org/2000/svg" viewBox="0 0 61.36 61.35">
  <defs>
    <style>
      .cls-1 {
        fill: #4f5dff;
      }
    </style>
  </defs>
  <g id="Layer_1-2" data-name="Layer_1">
    <path class="cls-1" d="M23.52,29.76c-3.22-.38-6.44-.84-9.67-1.13C5.4,27.88-.25,21.9.06,13.95.36,6.08,6.42.09,14.16,0c8.21-.09,14.04,5.86,14.49,14.56.16,3.04.76,6.05,1.16,9.07.55,0,1.1-.02,1.66-.03.37-3.46.74-6.92,1.11-10.38C33.38,5.76,39.2.22,46.45,0c7.32-.22,13.55,4.97,14.74,12.26,1.08,6.63-3.11,13.68-9.69,15.6-2.99.87-6.24.83-9.35,1.29-1.53.23-3.04.65-4.56.98.03.43.07.86.1,1.29,3.05.37,6.08.87,9.14,1.08,8.7.61,14.7,6.61,14.52,14.66-.18,7.81-6.74,14.21-14.54,14.17-8.03-.04-13.87-6.19-14.32-14.91-.15-2.9-.68-5.79-1.03-8.68l-1.65-.1c-.4,2.98-1.02,5.94-1.17,8.93-.43,8.68-6.32,14.82-14.37,14.73C6.65,61.24.32,55.05.01,47.4c-.32-8.01,5.79-14.33,14.28-14.9,3.1-.21,6.18-.65,9.27-.98-.01-.59-.03-1.17-.04-1.76Z"/>
  </g>
</svg>