<?xml version="1.0" encoding="UTF-8"?>
<svg id="Layer_2" xmlns="http://www.w3.org/2000/svg" viewBox="0 0 85.62 85.45">
  <defs>
    <style>
      .cls-1 {
        fill: #4f5dff;
      }
    </style>
  </defs>
  <g id="Layer_1-2" data-name="Layer_1">
    <path class="cls-1" d="M54.17,14.88c3.96-1.42,7.61-3.1,11.43-4.03,6.3-1.52,10.09,2.15,9.12,8.56-.29,1.95-1.01,3.85-1.7,5.71-.69,1.85-1.61,3.63-2.59,5.81,3.29,1.51,6.65,2.75,9.72,4.51,7.31,4.17,7.29,10.3-.05,14.4-3,1.68-6.29,2.83-9.45,4.23,1.31,3.51,2.88,6.85,3.79,10.36,1.9,7.35-2.02,11.46-9.45,9.83-3.53-.77-6.86-2.41-10.62-3.78-1.44,3.15-2.68,6.55-4.47,9.63-4.13,7.12-9.88,7.13-14.09,0-1.76-2.97-2.93-6.29-4.47-9.69-3.01,1.15-5.99,2.53-9.12,3.43-8.83,2.56-13.07-1.56-10.64-10.35.88-3.17,2.26-6.21,3.42-9.33-3.49-1.64-7.1-2.94-10.28-4.92-6.3-3.92-6.28-9.46.01-13.29,3.22-1.96,6.83-3.28,10.31-4.91-1.3-3.49-2.88-6.8-3.77-10.29-1.92-7.54,2.48-11.79,9.98-9.7,3.33.93,6.51,2.41,10.22,3.82.87-2.21,1.66-4.66,2.77-6.96C36.07,4.15,38.03,0,42.94,0c4.95,0,6.74,4.33,8.61,8.03,1.11,2.2,1.78,4.62,2.62,6.84ZM30.77,42.51c-.05,7.34,4.55,12.13,11.72,12.21,7.34.08,12.41-4.63,12.45-11.55.04-7.42-4.62-12.68-11.28-12.72-8.06-.06-12.84,4.42-12.89,12.06ZM20,30.38c7.91-.29,12.67-4.45,10.21-11.18-1.19-3.24-8.05-4.92-12.65-6.21-2.87-.8-4.63,1.87-4.53,5.08.18,5.34,4.16,12.41,6.97,12.31ZM68.94,71.93c2.57-1.18,3.88-4.12,3.29-6.88-1.2-5.56-4.36-10.37-6.59-10.24-8.15.46-11.04,3.48-10.65,11.11.13,2.48,8.65,7.09,12.96,6.32.34-.06.67-.17.98-.32ZM72.31,16.89c-1.03-2.77-4.08-4.22-6.97-3.61-5.22,1.1-10.24,4.03-10.34,5.97-.37,7.47,3.27,11.22,10.91,11.2,2.49,0,7.18-8.05,6.65-12.55-.04-.34-.13-.68-.25-1.01ZM14.34,71.23c1.62,1.78,4.29,2.13,6.46,1.1,3.89-1.84,8.45-3.45,9.43-6.3,2.37-6.87-2.16-10.79-10.25-11.24-2.68-.15-6.34,6.16-6.91,11.86-.19,1.9.17,3.37,1.27,4.57ZM42.87,62.21c-2.83,2.03-5.84,3.65-8.03,6.03-.84.92-.24,3.71.41,5.36,1.56,3.94,2.9,9.72,7.74,9.01,2.87-.42,5.27-5.61,7.38-8.97.89-1.41,1.36-4.41.53-5.32-2.18-2.39-5.18-4.04-8.03-6.11ZM16.36,32.99c-3.91,1.89-7.9,3.49-11.52,5.69-2.55,1.55-3.72,4.72-1.01,6.69,3.53,2.57,7.67,4.71,11.86,5.73,1.31.32,3.58-3.68,5.53-5.57,2.13-2.07,1.84-3.9,0-6.01-1.62-1.85-2.96-3.95-4.85-6.53ZM69.29,33.06c-1.04,1.37-1.66,2.13-2.23,2.93-5.07,7.25-5.09,7.64.74,14.04.72.78,2.4,1.47,3.29,1.17,2.95-1.01,5.94-2.18,8.56-3.85,4.72-3.02,4.85-6.24.24-9.23-3.14-2.04-6.81-3.28-10.6-5.05ZM42.62,1.77c-1.34,1.04-2.84,1.7-3.54,2.84-1.7,2.82-3.19,5.79-4.41,8.85-.45,1.13-.4,3.37.31,3.88,2.72,1.96,6.03,5.1,8.7,4.74,6.53-.88,8.75-6.19,6.09-12.18-.93-2.1-2.23-4.08-3.65-5.89-.74-.94-2.12-1.38-3.51-2.24ZM66.71,32.68c-3.94-.52-6.77-.89-11.14-1.46,1.9,3.97,3.19,6.65,4.87,10.14,2.42-3.35,4.02-5.57,6.27-8.68ZM66.56,52.55c-2.15-3.01-3.81-5.32-6.45-9.01-1.54,4.1-2.6,6.92-3.98,10.57,4.09-.61,6.66-.99,10.43-1.56ZM33.02,66.39c3.14-2.3,5.33-3.9,8.72-6.37-3.76-1.61-6.45-2.77-10.39-4.46.68,4.42,1.1,7.13,1.67,10.83ZM44.03,60.13c3.45,2.4,5.8,4.04,8.72,6.07.52-3.64.93-6.46,1.57-10.88-4.02,1.88-6.65,3.11-10.29,4.8ZM53.15,29.08c.37-.46.74-.92,1.1-1.37-.56-2.72-1.12-5.43-1.83-8.87-3,2.39-5.21,4.14-8.42,6.7,3.78,1.47,6.46,2.51,9.15,3.55ZM19.04,52.58c3.91.48,6.74.83,11.11,1.36-1.85-3.9-3.1-6.51-4.78-10.05-2.35,3.22-3.96,5.43-6.33,8.68ZM19.24,32.83c2.06,2.9,3.71,5.21,6.28,8.82,1.58-3.99,2.7-6.79,4.24-10.68-4.37.77-7.05,1.24-10.52,1.86ZM31.63,27.83c.38.45.76.9,1.14,1.35,2.67-1.21,5.33-2.43,8.98-4.09-3.55-2.47-5.9-4.1-8.72-6.06-.54,3.4-.98,6.1-1.41,8.8Z"/>
  </g>
</svg>