<?xml version="1.0" encoding="UTF-8"?>
<svg id="Layer_2" xmlns="http://www.w3.org/2000/svg" viewBox="0 0 73.66 35.27">
  <defs>
    <style>
      .cls-1 {
        fill: #fff;
      }
    </style>
  </defs>
  <g id="Layer_1-2" data-name="Layer_1">
    <g>
      <path class="cls-1" d="M25.07,34.11c11.28-.31,21.86-2.78,31.48-8.68,2.53-1.55,4.97-3.43,6.98-5.59,3.38-3.62,5.15-7.79,1.15-13.47,5.14,2.68,8.31,5.54,8.9,10.32.61,4.9-2.15,8.31-5.96,10.76-13.22,8.5-27.75,8.92-42.55,6.66Z"/>
      <path class="cls-1" d="M8.24,28.52C-2.18,22.34-2.74,13.97,6.67,7.6,16.31,1.08,27.42.02,38.67,0c2.8,0,5.61.43,9.31.73-6.66,1.34-12.66,1.83-18.1,3.83-6.15,2.26-12.15,5.36-17.56,9.06-4.86,3.33-7.61,8.33-4.07,14.9Z"/>
      <path class="cls-1" d="M36.22,25.32c-4.15-.47-7.18-4.21-6.81-8.4.38-4.28,3.83-6.99,8.37-6.58,3.86.35,6.98,4.06,6.66,7.92-.33,3.99-4.41,7.5-8.22,7.07Z"/>
    </g>
  </g>
</svg>