<?xml version="1.0" encoding="UTF-8"?>
<svg id="Layer_2" xmlns="http://www.w3.org/2000/svg" viewBox="0 0 72.3 72.17">
  <defs>
    <style>
      .cls-1 {
        fill: #4f5dff;
      }
    </style>
  </defs>
  <g id="Layer_1-2" data-name="Layer_1">
    <g>
      <path class="cls-1" d="M56.95,65.39c-12.39,9.08-29.85,9.05-41.61-.13,6.9.44,11.86-2.25,14.72-7.64,2.6-4.9,4.34-10.24,6.29-14.97,3.01,9.83,4.74,22.19,20.6,22.73Z"/>
      <path class="cls-1" d="M6.83,56.93c-9.08-12.34-9.12-29.42-.05-41.49.58,15.2,12.21,17.58,24.01,20.69-11.73,3.17-23.4,5.43-23.96,20.8Z"/>
      <path class="cls-1" d="M36.01,30.94c-3.56-17.11-8.88-23.49-19.76-24.12,6.87-8.1,29.1-9.98,40.11-.15-15,.9-17.13,12.81-20.35,24.28Z"/>
      <path class="cls-1" d="M41.16,36.28c11.42-3.22,23.17-5.36,24.46-19.81,8.73,7.75,9.03,27.7.21,39.86-1.46-14.7-12.63-17.37-24.66-20.05Z"/>
    </g>
  </g>
</svg>