<?xml version="1.0" encoding="UTF-8"?>
<svg id="Layer_2" xmlns="http://www.w3.org/2000/svg" viewBox="0 0 83.83 50.63">
  <defs>
    <style>
      .cls-1 {
        fill: #4f5dff;
      }
    </style>
  </defs>
  <g id="Layer_1-2" data-name="Layer_1">
    <path class="cls-1" d="M25.29,33.98c-6.16-.02-7.26,1.15-8.51,8.99-.87,5.51-5.08,8.46-10.37,7.26-4.82-1.09-7.54-5.91-5.96-10.82,1.21-3.76,3.98-5.31,7.91-5.69,6.59-.65,8.19-2.46,8.24-8.22.05-6.12-1.56-7.71-8.48-8.44-4.26-.45-7.21-2.52-7.87-6.96C-.42,5.6,1.25,2.22,5.64.59c5.48-2.03,10.2,1.31,11.14,7.76,1.04,7.09,4.34,9.66,10.6,8.4,4.07-.82,5.81-3.28,6.11-7.32C33.94,3.39,36.88.24,41.75.11c5.11-.14,8.1,3.07,8.71,9.39.5,5.13,2.94,7.37,8.12,7.48,4.86.1,7.45-1.99,8.26-6.69.17-.98.24-1.99.42-2.97.85-4.68,4.2-7.45,8.67-7.23,4.45.23,7.7,3.56,7.89,8.09.2,4.77-2.76,8.81-7.59,8.72-7.53-.14-9.22,4.31-8.95,9.64.27,5.5,3.86,6.75,8.37,7.27,5.34.61,7.91,3.12,8.13,7.67.24,4.87-2.82,8.62-7.39,9.03-4.89.44-8.53-2.61-9.22-7.72-.99-7.35-2.34-8.81-8.18-8.85-6.03-.05-7.99,1.76-8.54,7.87-.49,5.41-3.59,8.68-8.33,8.8-4.83.12-8.12-3.29-8.65-8.99-.54-5.81-2.49-7.63-8.18-7.65ZM50.32,25.35c.03-5.6-2.57-8.22-8.22-8.27-5.67-.05-8.4,2.52-8.5,8.01-.11,5.67,2.88,8.71,8.51,8.65,5.45-.05,8.19-2.86,8.22-8.4Z"/>
  </g>
</svg>