<?xml version="1.0" encoding="UTF-8"?>
<svg id="Layer_1" xmlns="http://www.w3.org/2000/svg" xmlns:xlink="http://www.w3.org/1999/xlink" viewBox="0 0 507 217">
  <defs>
    <style>
      .cls-1 {
        fill: none;
      }

      .cls-2 {
        fill: #fff;
      }

      .cls-3 {
        fill: #4f5dff;
      }

      .cls-4 {
        clip-path: url(#clippath);
      }
    </style>
    <clipPath id="clippath">
      <rect class="cls-1" width="507" height="217"/>
    </clipPath>
  </defs>
  <g class="cls-4">
    <g>
      <path class="cls-2" d="M195.07,205.66h3.84c3.1,0,5.23,2.14,5.23,5.49s-2.08,5.69-5.26,5.69h-3.8v-11.19h-.01ZM196.21,215.83h2.54c2.81,0,4.17-1.99,4.17-4.65,0-2.35-1.24-4.52-4.17-4.52h-2.54v9.18h0Z"/>
      <path class="cls-2" d="M213.29,211.46h-5.64v4.36h6.19l-.15,1.01h-7.16v-11.19h7.04v1.01h-5.92v3.79h5.64v1.01h0Z"/>
      <path class="cls-2" d="M216.42,213.78c.32,1.42,1.28,2.23,3.02,2.23,1.91,0,2.65-.93,2.65-2.07s-.56-1.91-2.92-2.49c-2.49-.61-3.46-1.44-3.46-3.04s1.14-2.92,3.59-2.92,3.61,1.52,3.76,2.92h-1.17c-.23-1.11-.95-1.95-2.64-1.95-1.51,0-2.32.69-2.32,1.85s.69,1.6,2.71,2.09c3.16.78,3.68,2.03,3.68,3.42,0,1.72-1.26,3.14-3.92,3.14-2.81,0-3.92-1.58-4.13-3.19h1.17-.01Z"/>
      <path class="cls-2" d="M226.75,205.66v11.19h-1.15v-11.19h1.15Z"/>
      <path class="cls-2" d="M238.63,216.83h-.91c-.06-.17-.1-.7-.13-1.67-.43.78-1.35,1.8-3.55,1.8-3.22,0-4.89-2.45-4.89-5.63,0-3.34,1.8-5.86,5.12-5.86,2.5,0,4.11,1.33,4.45,3.35h-1.15c-.43-1.43-1.44-2.36-3.34-2.36-2.71,0-3.88,2.13-3.88,4.8,0,2.45,1.15,4.68,3.79,4.68s3.38-1.75,3.38-3.97v-.13h-3.41v-1.01h4.52v5.98Z"/>
      <path class="cls-2" d="M241.45,216.83v-11.19h1.58c1.68,2.65,5.5,8.59,6.16,9.81h.01c-.1-1.53-.09-3.23-.09-5.05v-4.75h1.11v11.19h-1.48c-1.58-2.51-5.5-8.79-6.25-10.03h-.01c.08,1.38.08,3.13.08,5.16v4.87h-1.12.01Z"/>
      <path class="cls-2" d="M257.79,213.78c.32,1.42,1.28,2.23,3.03,2.23,1.91,0,2.65-.93,2.65-2.07s-.56-1.91-2.92-2.49c-2.49-.61-3.46-1.44-3.46-3.04s1.14-2.92,3.59-2.92,3.61,1.52,3.77,2.92h-1.17c-.23-1.11-.95-1.95-2.64-1.95-1.51,0-2.32.69-2.32,1.85s.69,1.6,2.7,2.09c3.17.78,3.68,2.03,3.68,3.42,0,1.72-1.26,3.14-3.92,3.14-2.81,0-3.92-1.58-4.13-3.19h1.17-.01Z"/>
      <path class="cls-2" d="M269.23,206.66h-3.69v-1.01h8.55v1.01h-3.7v10.17h-1.16v-10.17Z"/>
      <path class="cls-2" d="M277.03,205.66v6.75c0,2.82,1.57,3.57,3.09,3.57,1.79,0,3.08-.78,3.08-3.57v-6.75h1.16v6.7c0,3.56-1.93,4.62-4.26,4.62s-4.22-1.16-4.22-4.51v-6.83h1.17-.01Z"/>
      <path class="cls-2" d="M287.38,205.66h3.84c3.1,0,5.23,2.14,5.23,5.49s-2.08,5.69-5.26,5.69h-3.8v-11.19h-.01ZM288.52,215.83h2.54c2.81,0,4.17-1.99,4.17-4.65,0-2.35-1.24-4.52-4.17-4.52h-2.54v9.18h0Z"/>
      <path class="cls-2" d="M299.98,205.66v11.19h-1.15v-11.19h1.15Z"/>
      <path class="cls-2" d="M312.58,211.17c0,3.06-1.67,5.83-5.16,5.83-3.21,0-5.05-2.54-5.05-5.76s1.83-5.75,5.17-5.75c3.1,0,5.04,2.39,5.04,5.68ZM303.59,211.19c0,2.5,1.34,4.8,3.89,4.8,2.76,0,3.89-2.26,3.89-4.8s-1.29-4.7-3.88-4.7c-2.72,0-3.92,2.23-3.92,4.7h.01Z"/>
      <path class="cls-2" d="M261.09,11.27c-.56-.51-1.14-1-1.7-1.44-1.4-1.11-2.88-2.13-4.44-3.04-29.26-17.35-83.84-.54-126.9,40.5-34.74,33.06-52.14,72.45-47.23,100.31,1.56,8.92,5.42,16.66,11.74,22.61.26.26.54.51.83.78,6.16,5.49,14.01,8.91,22.98,10.36,2.36.41,4.81.66,7.33.78,29.95,1.49,69.71-15.76,102.74-47.23,11.43-10.9,21.02-22.5,28.51-34.13,1.98-3.04,3.8-6.09,5.49-9.15,17.84-32.32,19.33-63.74.66-80.36h-.01ZM259.89,49.55c-1.38,3.42-3.02,6.97-4.95,10.62-9.49,18.13-25.52,38.93-46.41,58.84-29.62,28.21-61.61,47.54-84.99,53.13-2.5.59-4.89,1.05-7.18,1.33-7.99.96-14.57-.06-19.27-3.29-.56-.38-1.06-.78-1.56-1.24-5.16-4.59-6.76-12.02-5.3-21.32,3.47-21.9,24.03-54.19,55.69-84.35C188.01,23.19,234.79,1.03,254.94,10.71c1.48.69,2.79,1.56,3.98,2.6.19.15.36.31.51.46,7.17,6.97,6.84,19.87.46,35.77h0Z"/>
      <path class="cls-2" d="M438.27,0h-45.56l-55.88,147.59h-36.31V0h-45.57v4.03c.41.22.82.46,1.23.69,1.56.89,3.14,1.98,4.71,3.22.61.48,1.21,1.01,1.82,1.56,18.94,16.86,18.87,48.77-.17,83.29-1.75,3.19-3.64,6.32-5.58,9.3-.65,1.01-1.31,2.03-2,3.04v77.11h116.42l11.87-35.41h63.13l11.94,35.41h48.68L438.27,0ZM394.86,112.19l3.57-10.67c7.99-23.95,13.37-42.43,16.14-55.44h.52c.87,4.16,1.85,8.33,2.99,12.49,1.14,4.16,2.57,9.11,4.3,14.84,2.26,8.33,4.86,16.83,7.81,25.51l4.48,13.27h-39.82Z"/>
      <path class="cls-2" d="M91.8,172.77c-.33-.28-.64-.59-.93-.88-6.51-6.15-10.69-14.2-12.39-23.89-.03-.14-.05-.28-.06-.41h-32.85V0H0v182.23h109.36c-6.8-1.95-12.68-5.12-17.56-9.46Z"/>
      <path class="cls-3" d="M261.61,11.32c-.56-.51-1.14-1-1.7-1.45-1.41-1.12-2.89-2.14-4.45-3.05-29.32-17.43-84.01-.54-127.15,40.69-34.8,33.21-52.25,72.79-47.32,100.77,1.56,8.96,5.43,16.74,11.76,22.72.26.26.54.51.83.78,6.18,5.51,14.04,8.95,23.03,10.41,2.37.41,4.82.67,7.34.78,30.01,1.5,69.85-15.83,102.94-47.44,11.46-10.95,21.06-22.6,28.57-34.29,1.98-3.05,3.81-6.12,5.5-9.19,17.88-32.47,19.37-64.03.67-80.73h-.01ZM260.41,49.78c-1.38,3.44-3.03,7-4.96,10.67-9.51,18.22-25.57,39.11-46.5,59.11-29.68,28.34-61.73,47.76-85.16,53.38-2.51.59-4.9,1.05-7.2,1.33-8,.96-14.6-.06-19.31-3.31-.56-.38-1.06-.78-1.56-1.24-5.17-4.62-6.78-12.08-5.31-21.42,3.48-22,24.08-54.44,55.8-84.73C188.38,23.29,235.26,1.04,255.45,10.76c1.48.69,2.8,1.56,3.99,2.62.19.15.36.31.51.46,7.19,7,6.85,19.96.46,35.93h0Z"/>
    </g>
  </g>
</svg>