<svg width="103" height="45" viewBox="0 0 103 45" fill="none" xmlns="http://www.w3.org/2000/svg">
<g clip-path="url(#clip0_36_19)">
<mask id="path-1-inside-1_36_19" fill="white">
<path d="M53.0426 2.33653C52.9285 2.23068 52.8118 2.13013 52.6978 2.03752C52.4126 1.8073 52.1119 1.59561 51.7956 1.40774C45.851 -2.19099 34.7629 1.2966 26.0158 9.80654C18.959 16.6627 15.4228 24.8312 16.4209 30.6077C16.7372 32.4574 17.5227 34.0636 18.806 35.2967C18.8579 35.3496 18.9149 35.4025 18.9745 35.4581C20.2267 36.5959 21.8211 37.3051 23.6436 37.6067C24.1232 37.6914 24.621 37.7443 25.1317 37.7681C31.2163 38.0777 39.2945 34.5002 46.0039 27.9748C48.3268 25.715 50.2738 23.3097 51.7956 20.8965C52.1974 20.2667 52.5681 19.6342 52.9104 18.9992C56.5347 12.2965 56.838 5.78178 53.0452 2.33388L53.0426 2.33653ZM52.7989 10.2749C52.5189 10.9841 52.1844 11.7197 51.793 12.4765C49.8642 16.2366 46.608 20.5498 42.3641 24.6778C36.3469 30.5283 29.8475 34.5372 25.098 35.6962C24.5899 35.818 24.1051 35.9132 23.6384 35.9714C22.0155 36.1699 20.6778 35.9582 19.7238 35.2887C19.6097 35.2093 19.5086 35.1273 19.4075 35.0321C18.3601 34.0794 18.0335 32.5394 18.3316 30.6104C19.0368 26.0696 23.2133 19.3723 29.6453 13.1195C38.1953 4.80801 47.6994 0.214336 51.793 2.2201C52.0937 2.36299 52.3607 2.54293 52.6018 2.75991C52.6407 2.79166 52.6744 2.82342 52.7055 2.85517C54.1625 4.29995 54.0951 6.97519 52.7989 10.2723V10.2749Z"/>
</mask>
<path d="M53.0426 2.33653C52.9285 2.23068 52.8118 2.13013 52.6978 2.03752C52.4126 1.8073 52.1119 1.59561 51.7956 1.40774C45.851 -2.19099 34.7629 1.2966 26.0158 9.80654C18.959 16.6627 15.4228 24.8312 16.4209 30.6077C16.7372 32.4574 17.5227 34.0636 18.806 35.2967C18.8579 35.3496 18.9149 35.4025 18.9745 35.4581C20.2267 36.5959 21.8211 37.3051 23.6436 37.6067C24.1232 37.6914 24.621 37.7443 25.1317 37.7681C31.2163 38.0777 39.2945 34.5002 46.0039 27.9748C48.3268 25.715 50.2738 23.3097 51.7956 20.8965C52.1974 20.2667 52.5681 19.6342 52.9104 18.9992C56.5347 12.2965 56.838 5.78178 53.0452 2.33388L53.0426 2.33653ZM52.7989 10.2749C52.5189 10.9841 52.1844 11.7197 51.793 12.4765C49.8642 16.2366 46.608 20.5498 42.3641 24.6778C36.3469 30.5283 29.8475 34.5372 25.098 35.6962C24.5899 35.818 24.1051 35.9132 23.6384 35.9714C22.0155 36.1699 20.6778 35.9582 19.7238 35.2887C19.6097 35.2093 19.5086 35.1273 19.4075 35.0321C18.3601 34.0794 18.0335 32.5394 18.3316 30.6104C19.0368 26.0696 23.2133 19.3723 29.6453 13.1195C38.1953 4.80801 47.6994 0.214336 51.793 2.2201C52.0937 2.36299 52.3607 2.54293 52.6018 2.75991C52.6407 2.79166 52.6744 2.82342 52.7055 2.85517C54.1625 4.29995 54.0951 6.97519 52.7989 10.2723V10.2749Z" fill="#D9D9D9"/>
<path d="M53.0426 2.33653L49.6416 6.00173L53.2097 9.31251L56.6151 5.83466L53.0426 2.33653ZM52.6978 2.03752L55.8494 -1.84419L55.8385 -1.85299L52.6978 2.03752ZM51.7956 1.40774L49.2062 5.68502L49.2241 5.69585L49.2421 5.70653L51.7956 1.40774ZM26.0158 9.80654L29.4999 13.3927L29.5024 13.3903L26.0158 9.80654ZM16.4209 30.6077L21.3494 29.765L21.3479 29.7564L16.4209 30.6077ZM18.806 35.2967L22.3776 31.7975L22.3248 31.7436L22.2703 31.6913L18.806 35.2967ZM18.9745 35.4581L15.5657 39.1159L15.5887 39.1374L15.612 39.1585L18.9745 35.4581ZM23.6436 37.6067L24.5129 32.6829L24.4865 32.6782L24.4601 32.6738L23.6436 37.6067ZM25.1317 37.7681L25.3858 32.7746L25.3752 32.7741L25.3646 32.7736L25.1317 37.7681ZM46.0039 27.9748L49.49 31.5592L49.4905 31.5587L46.0039 27.9748ZM51.7956 20.8965L47.5805 18.207L47.5734 18.2182L47.5663 18.2295L51.7956 20.8965ZM52.9104 18.9992L48.5122 16.6209L48.5087 16.6273L52.9104 18.9992ZM53.0452 2.33388L56.4085 -1.36588L52.8434 -4.60673L49.4726 -1.16425L53.0452 2.33388ZM52.7989 10.2749L57.4495 12.1111L57.7989 11.2262V10.2749H52.7989ZM51.793 12.4765L47.3519 10.1793L47.348 10.1868L47.3442 10.1944L51.793 12.4765ZM42.3641 24.6778L45.8496 28.2626L45.8503 28.2619L42.3641 24.6778ZM25.098 35.6962L26.2628 40.5587L26.2731 40.5562L26.2834 40.5537L25.098 35.6962ZM23.6384 35.9714L24.2454 40.9345L24.2574 40.933L23.6384 35.9714ZM19.7238 35.2887L22.5958 31.1959L22.5878 31.1903L22.5798 31.1847L19.7238 35.2887ZM19.4075 35.0321L22.8362 31.3929L22.8042 31.3627L22.7717 31.3331L19.4075 35.0321ZM18.3316 30.6104L13.3908 29.8431L13.3903 29.8467L18.3316 30.6104ZM29.6453 13.1195L26.1601 9.53429L26.16 9.53437L29.6453 13.1195ZM51.793 2.2201L49.593 6.71008L49.62 6.72332L49.6472 6.73623L51.793 2.2201ZM52.6018 2.75991L49.2571 6.47646L49.3464 6.55682L49.4394 6.63279L52.6018 2.75991ZM52.7055 2.85517L49.134 6.35433L49.1593 6.38012L49.1849 6.40554L52.7055 2.85517ZM52.7989 10.2723L48.1456 8.44281L47.7989 9.32468V10.2723H52.7989ZM53.0426 2.33653L56.4435 -1.32867C56.2422 -1.51544 56.0417 -1.68799 55.8493 -1.84418L52.6978 2.03752L49.5462 5.91921C49.582 5.94825 49.6148 5.97681 49.6416 6.00173L53.0426 2.33653ZM52.6978 2.03752L55.8385 -1.85299C55.3825 -2.22106 54.8865 -2.57183 54.3491 -2.89105L51.7956 1.40774L49.2421 5.70653C49.3372 5.76305 49.4427 5.83566 49.5571 5.92803L52.6978 2.03752ZM51.7956 1.40774L54.3849 -2.86954C49.6485 -5.73689 43.6938 -5.39195 38.4223 -3.6924C32.9925 -1.94178 27.3833 1.5002 22.5291 6.22276L26.0158 9.80654L29.5024 13.3903C33.3953 9.60294 37.7038 7.04615 41.4909 5.82518C45.4363 4.55313 47.9981 4.95363 49.2062 5.68502L51.7956 1.40774ZM26.0158 9.80654L22.5316 6.22038C18.6071 10.0333 15.572 14.2937 13.6437 18.5478C11.7435 22.7401 10.77 27.2694 11.4939 31.4591L16.4209 30.6077L21.3479 29.7564C21.0737 28.1696 21.3692 25.7264 22.7518 22.6762C24.1063 19.6879 26.3677 16.4359 29.4999 13.3927L26.0158 9.80654ZM16.4209 30.6077L11.4925 31.4505C11.9636 34.2056 13.1858 36.8304 15.3417 38.902L18.806 35.2967L22.2703 31.6913C21.8597 31.2967 21.5108 30.7092 21.3494 29.765L16.4209 30.6077ZM18.806 35.2967L15.2345 38.7958C15.3827 38.9471 15.5321 39.0846 15.5657 39.1159L18.9745 35.4581L22.3834 31.8002C22.3795 31.7966 22.3754 31.7928 22.3719 31.7896C22.3683 31.7862 22.365 31.7831 22.3619 31.7802C22.3555 31.7743 22.3504 31.7695 22.3459 31.7653C22.3368 31.7568 22.3328 31.753 22.3317 31.7519C22.3306 31.7509 22.3346 31.7546 22.3419 31.7618C22.3493 31.769 22.3616 31.7812 22.3776 31.7975L18.806 35.2967ZM18.9745 35.4581L15.612 39.1585C17.6891 41.0459 20.2171 42.1076 22.8271 42.5396L23.6436 37.6067L24.4601 32.6738C23.4251 32.5025 22.7643 32.1459 22.3371 31.7576L18.9745 35.4581ZM23.6436 37.6067L22.7743 42.5306C23.4846 42.656 24.1963 42.73 24.8988 42.7627L25.1317 37.7681L25.3646 32.7736C25.0457 32.7587 24.7619 32.7268 24.5129 32.6829L23.6436 37.6067ZM25.1317 37.7681L24.8776 42.7617C32.832 43.1664 42.1921 38.6569 49.49 31.5592L46.0039 27.9748L42.5179 24.3905C36.397 30.3435 29.6006 32.9891 25.3858 32.7746L25.1317 37.7681ZM46.0039 27.9748L49.4905 31.5587C52.079 29.0404 54.2801 26.3303 56.0249 23.5634L51.7956 20.8965L47.5663 18.2295C46.2674 20.2891 44.5746 22.3897 42.5174 24.391L46.0039 27.9748ZM51.7956 20.8965L56.0106 23.5859C56.479 22.8519 56.9119 22.1135 57.312 21.371L52.9104 18.9992L48.5087 16.6273C48.2244 17.155 47.9159 17.6814 47.5805 18.207L51.7956 20.8965ZM52.9104 18.9992L57.3085 21.3774C59.3882 17.5314 60.6845 13.4429 60.7583 9.54049C60.8331 5.58443 59.6256 1.55872 56.4085 -1.36588L53.0452 2.33388L49.6819 6.03364C50.2575 6.55694 50.7948 7.51257 50.7601 9.35151C50.7243 11.2441 50.0568 13.7644 48.5122 16.6209L52.9104 18.9992ZM53.0452 2.33388L49.4726 -1.16425L49.47 -1.16161L53.0426 2.33653L56.6151 5.83466L56.6177 5.83202L53.0452 2.33388ZM52.7989 10.2749L48.1482 8.43874C47.9337 8.98219 47.6702 9.56408 47.3519 10.1793L51.793 12.4765L56.234 14.7737C56.6987 13.8753 57.1041 12.9859 57.4495 12.1111L52.7989 10.2749ZM51.793 12.4765L47.3442 10.1944C45.7169 13.3667 42.8263 17.253 38.8778 21.0936L42.3641 24.6778L45.8503 28.2619C50.3896 23.8466 54.0115 19.1065 56.2418 14.7586L51.793 12.4765ZM42.3641 24.6778L38.8785 21.0929C33.1801 26.6335 27.4453 29.9767 23.9127 30.8388L25.098 35.6962L26.2834 40.5537C32.2496 39.0978 39.5136 34.4231 45.8496 28.2626L42.3641 24.6778ZM25.098 35.6962L23.9332 30.8338C23.5445 30.9269 23.2496 30.9812 23.0195 31.0099L23.6384 35.9714L24.2574 40.933C24.9606 40.8452 25.6353 40.709 26.2628 40.5587L25.098 35.6962ZM23.6384 35.9714L23.0315 31.0084C22.5811 31.0635 22.342 31.0388 22.2696 31.0265C22.2099 31.0163 22.3632 31.0327 22.5958 31.1959L19.7238 35.2887L16.8517 39.3816C19.2199 41.0434 21.9903 41.2102 24.2454 40.9345L23.6384 35.9714ZM19.7238 35.2887L22.5798 31.1847C22.6185 31.2116 22.6633 31.2449 22.7113 31.2838C22.7594 31.3228 22.8014 31.3601 22.8362 31.3929L19.4075 35.0321L15.9787 38.6712C16.2596 38.9358 16.5521 39.1731 16.8677 39.3927L19.7238 35.2887ZM19.4075 35.0321L22.7717 31.3331C22.9174 31.4656 23.0331 31.6161 23.1151 31.7621C23.1946 31.9038 23.224 32.0077 23.2321 32.0423C23.2395 32.0738 23.2277 32.0398 23.2263 31.9223C23.2249 31.8049 23.2342 31.6243 23.2729 31.3741L18.3316 30.6104L13.3903 29.8467C12.9739 32.5405 13.2092 36.1533 16.0432 38.731L19.4075 35.0321ZM18.3316 30.6104L23.2724 31.3777C23.4745 30.0758 24.2975 27.9422 26.0515 25.2034C27.7557 22.5422 30.154 19.5981 33.1305 16.7046L29.6453 13.1195L26.16 9.53437C22.7045 12.8936 19.7986 16.4247 17.6303 19.8105C15.5116 23.1188 13.8938 26.6042 13.3908 29.8431L18.3316 30.6104ZM29.6453 13.1195L33.1304 16.7047C37.1047 12.8413 41.1945 9.95299 44.5885 8.29169C46.2914 7.45817 47.6691 7.00741 48.665 6.83412C49.7342 6.64807 49.8941 6.85762 49.593 6.71008L51.793 2.2201L53.993 -2.26989C51.6451 -3.4203 49.0819 -3.38871 46.9506 -3.01783C44.746 -2.6342 42.4457 -1.79315 40.1921 -0.690039C35.6731 1.52193 30.7359 5.08615 26.1601 9.53429L29.6453 13.1195ZM51.793 2.2201L49.6472 6.73623C49.5031 6.66779 49.3678 6.57605 49.2571 6.47646L52.6018 2.75991L55.9466 -0.956639C55.3537 -1.4902 54.6843 -1.94181 53.9388 -2.29603L51.793 2.2201ZM52.6018 2.75991L49.4394 6.63279C49.3062 6.52396 49.2031 6.42488 49.134 6.35433L52.7055 2.85517L56.2771 -0.64399C56.1457 -0.778047 55.9753 -0.940641 55.7642 -1.11298L52.6018 2.75991ZM52.7055 2.85517L49.1849 6.40554C48.698 5.92271 48.7837 5.5102 48.7847 5.88195C48.7858 6.29557 48.6588 7.13737 48.1456 8.44281L52.7989 10.2723L57.4522 12.1017C58.2352 10.1101 58.7901 7.96572 58.7847 5.85626C58.7791 3.70493 58.1701 1.23241 56.2262 -0.695199L52.7055 2.85517ZM52.7989 10.2723H47.7989V10.2749H52.7989H57.7989V10.2723H52.7989Z" fill="white" mask="url(#path-1-inside-1_36_19)"/>
<path d="M89.0368 0H79.7816L68.429 30.6051H61.0533V0H51.7955V0.836176C51.8785 0.88116 51.9615 0.931436 52.0444 0.979066C52.3607 1.16429 52.6822 1.38922 53.001 1.64589C53.1255 1.74644 53.2473 1.85493 53.3718 1.96872C57.219 5.46425 57.2061 12.0822 53.3381 19.24C52.9829 19.9015 52.5992 20.5498 52.2051 21.169C52.0729 21.378 51.9381 21.5897 51.7981 21.7988V37.7893H75.4417H75.4495L77.8605 30.4463H90.6856L93.1122 37.7893H103.003L89.0368 0ZM80.2171 23.2647L80.943 21.0526C82.5659 16.0858 83.6599 12.2542 84.2225 9.55516H84.3288C84.5051 10.4178 84.7047 11.2831 84.9355 12.1457C85.1662 13.0084 85.4565 14.035 85.8091 15.2232C86.268 16.9511 86.7969 18.7134 87.3957 20.5128L88.3057 23.2647H80.2171Z" fill="white"/>
<path d="M18.6504 35.8285C18.583 35.7703 18.5208 35.7068 18.4612 35.646C17.139 34.3705 16.2887 32.7008 15.9439 30.6924C15.9387 30.6633 15.9335 30.6342 15.9309 30.6077H9.25782V0H0V37.7893H22.2177C20.8359 37.3845 19.6408 36.7282 18.6504 35.8285Z" fill="white"/>
<path d="M53.1471 2.3473C53.0328 2.24096 52.9159 2.13995 52.8016 2.04691C52.5159 1.81563 52.2146 1.60297 51.8977 1.41423C45.9413 -2.20109 34.8313 1.30258 26.067 9.85173C18.9963 16.7394 15.4531 24.9457 16.4532 30.7488C16.7701 32.6069 17.5572 34.2205 18.843 35.4593C18.895 35.5125 18.9521 35.5657 19.0119 35.6215C20.2665 36.7646 21.8641 37.477 23.6902 37.78C24.1707 37.8651 24.6695 37.9183 25.1812 37.9422C31.2778 38.2532 39.372 34.6592 46.0946 28.1037C48.4221 25.8335 50.3729 23.4171 51.8977 20.9927C52.3003 20.3601 52.6717 19.7247 53.0146 19.0867C56.6461 12.3532 56.95 5.80843 53.1497 2.34464L53.1471 2.3473ZM52.9029 10.3223C52.6224 11.0347 52.2873 11.7737 51.8951 12.534C49.9624 16.3114 46.6998 20.6445 42.4475 24.7915C36.4185 30.669 29.9063 34.6964 25.1474 35.8607C24.6383 35.983 24.1526 36.0787 23.685 36.1372C22.0589 36.3366 20.7185 36.1239 19.7626 35.4513C19.6483 35.3716 19.547 35.2892 19.4457 35.1935C18.3962 34.2365 18.0689 32.6893 18.3677 30.7514C19.0742 26.1898 23.259 19.4616 29.7037 13.1799C38.2706 4.83017 47.7934 0.215325 51.8951 2.23033C52.1964 2.37388 52.4639 2.55465 52.7055 2.77263C52.7445 2.80453 52.7783 2.83643 52.8094 2.86833C54.2693 4.31977 54.2017 7.00733 52.9029 10.3196V10.3223Z" fill="white"/>
</g>
<defs>
<clipPath id="clip0_36_19">
<rect width="103" height="45" fill="white"/>
</clipPath>
</defs>
</svg>
