<?xml version="1.0" encoding="UTF-8"?>
<svg id="Capa_2" data-name="Capa 2" xmlns="http://www.w3.org/2000/svg" viewBox="0 0 146.36 134.47">
  <defs>
    <style>
      .cls-1 {
        fill: #4f5dff;
      }
    </style>
  </defs>
  <g id="Capa_1-2" data-name="Capa 1">
    <path class="cls-1" d="M146.07,21.43c-2.36-3.74-18.74,2.01-41.24,13.66,3.53-18.45,2.39-31.93-4.1-34.61-8.09-3.35-22.19,11.15-35.18,34.54-25.31-12.6-47.05-16.15-52.82-7.32-5.84,8.92,6.49,27.79,28.7,46.15C14.81,92.62-2.45,108.66.28,113.05c2.36,3.74,18.74-2,41.23-13.64-3.53,18.44-2.39,31.91,4.08,34.59,8.11,3.35,22.21-11.14,35.2-34.53,25.31,12.61,47.05,16.14,52.82,7.33,5.84-8.94-6.49-27.8-28.7-46.16,26.63-18.78,43.89-34.82,41.15-39.21ZM94.15,16.44c4.8,1.98,6.51,10.11,5.35,21.46-4.67,2.5-9.55,5.23-14.59,8.15-5.39-3.46-10.76-6.58-16-9.32,9.26-14.48,19.03-22.83,25.25-20.28ZM92.47,66.72c-4.36,3.01-9,6.08-13.87,9.14-5.81,3.66-11.5,7.02-16.91,10.03-.17-.11-.34-.21-.5-.32-3.75-2.45-7.28-5.01-10.58-7.61.94-3.31,2.04-6.73,3.29-10.21,4.36-3.02,9-6.09,13.88-9.15,5.81-3.65,11.5-7.01,16.92-10.03.17.11.33.2.5.31,3.75,2.45,7.28,5.01,10.58,7.61-.94,3.32-2.04,6.74-3.3,10.22ZM98.56,58.76c.78.65,1.55,1.3,2.31,1.96-1.29.95-2.62,1.92-3.98,2.89.58-1.63,1.14-3.25,1.67-4.85ZM91.26,69.96c-.52,1.35-1.05,2.71-1.62,4.07-3.27,7.93-6.95,15.18-10.76,21.44-4.96-2.32-10.07-5.1-15.2-8.32,5.18-3.04,10.51-6.27,15.94-9.67,4-2.51,7.88-5.02,11.65-7.51ZM59.45,87.12c-4.29,2.34-8.38,4.45-12.2,6.29.57-4.02,1.45-8.36,2.66-12.94,3.05,2.25,6.23,4.48,9.54,6.65ZM47.8,75.71c-.78-.65-1.55-1.3-2.3-1.95,1.29-.95,2.61-1.92,3.96-2.89-.58,1.63-1.14,3.24-1.66,4.84ZM55.09,64.54c.52-1.36,1.06-2.72,1.63-4.09,3.27-7.93,6.95-15.18,10.76-21.43,4.97,2.32,10.09,5.11,15.22,8.33-5.19,3.04-10.53,6.27-15.95,9.68-4,2.51-7.89,5.02-11.66,7.51ZM86.91,47.35c4.28-2.34,8.37-4.44,12.19-6.28-.57,4.01-1.45,8.36-2.66,12.93-3.05-2.25-6.23-4.48-9.53-6.65ZM24.94,35.69c4.86-7.42,20.67-6.2,39.24,1.83-3.58,6.66-7.06,13.97-10.28,21.76-1.14,2.75-2.2,5.48-3.2,8.18-2.37,1.6-4.69,3.18-6.94,4.75-15.75-14.23-23.82-28.87-18.82-36.53ZM19.96,100.68c-2.07-3.3,7.53-13.32,23.36-25.29,1.19.96,2.41,1.92,3.65,2.87-1.94,6.11-3.52,11.98-4.71,17.47-12.15,5.43-20.68,7.54-22.3,4.95ZM52.21,118.03c-4.8-1.98-6.51-10.1-5.35-21.44,4.67-2.5,9.56-5.23,14.61-8.16,5.38,3.46,10.74,6.58,15.98,9.32-9.26,14.48-19.04,22.84-25.24,20.28ZM121.39,98.8c-4.85,7.42-20.65,6.18-39.22-1.85,3.58-6.66,7.06-13.98,10.28-21.77,1.13-2.74,2.19-5.46,3.2-8.16,2.38-1.6,4.7-3.19,6.95-4.77,15.75,14.23,23.81,28.87,18.79,36.54ZM103.04,59.09c-1.19-.96-2.41-1.92-3.66-2.87,1.94-6.11,3.52-11.98,4.71-17.46,12.16-5.43,20.68-7.55,22.31-4.97,2.07,3.3-7.53,13.33-23.36,25.3Z"/>
  </g>
</svg>